<svg xmlns="http://www.w3.org/2000/svg" viewBox="0 0 512 512"><circle cx="256" cy="256" r="256" fill="#000000"/><path d="M50.688 1.536L50.688 1.536Q36.480 1.536 24.768-9.984Q13.056-21.504 13.056-46.464L13.056-46.464Q13.056-71.424 17.856-94.656Q22.656-117.888 28.992-139.392Q35.328-160.896 40.128-180.288Q44.928-199.680 44.928-216.960L44.928-216.960Q39.168-219.264 34.176-219.264L34.176-219.264Q27.264-219.264 22.656-215.040Q18.048-210.816 15.360-203.520L15.360-203.520L11.520-204.672Q11.904-231.552 19.392-247.488Q26.880-263.424 38.784-270.336Q50.688-277.248 63.360-277.248L63.360-277.248Q82.560-277.248 97.728-264.768Q112.896-252.288 124.992-230.784Q137.088-209.280 146.112-182.208Q155.136-155.136 161.664-125.760Q168.192-96.384 172.032-67.968L172.032-67.968Q174.336-83.328 176.832-105.600Q179.328-127.872 181.248-152.448Q183.168-177.024 183.168-199.296L183.168-199.296Q183.168-215.424 182.016-228.672Q180.864-241.920 178.176-251.520L178.176-251.520L178.176-254.592Q188.160-265.728 198.336-271.488Q208.512-277.248 217.344-277.248L217.344-277.248Q230.400-277.248 239.040-265.920Q247.680-254.592 247.680-233.856L247.680-233.856Q247.680-218.496 243.456-196.416Q239.232-174.336 233.472-149.376Q227.712-124.416 223.296-100.416Q218.880-76.416 218.496-57.216L218.496-57.216Q218.496-51.840 219.264-45.696Q220.032-39.552 227.328-39.552L227.328-39.552Q227.712-38.016 227.712-37.248Q227.712-36.480 227.712-35.712L227.712-35.712Q227.328-21.120 215.808-9.792Q204.288 1.536 185.088 1.536L185.088 1.536Q170.112 1.536 159.744-6.144Q149.376-13.824 142.464-26.688Q135.552-39.552 130.752-55.872Q125.952-72.192 121.728-89.472L121.728-89.472Q114.048-119.424 105.792-146.496Q97.536-173.568 83.712-196.224L83.712-196.224Q84.480-180.864 82.560-162.624Q80.640-144.384 78.528-125.760Q76.416-107.136 76.416-89.856L76.416-89.856Q76.416-74.496 79.104-61.632Q81.792-48.768 88.704-38.784L88.704-38.784Q88.704-19.968 76.800-9.216Q64.896 1.536 50.688 1.536ZM321.408 1.536L321.408 1.536Q307.584 1.536 296.448-9.984Q285.312-21.504 285.312-48L285.312-48Q285.312-69.504 290.304-90.240Q295.296-110.976 301.632-132.288Q307.968-153.600 312.384-176.448Q316.800-199.296 315.264-224.640L315.264-224.640Q304.896-223.104 294.912-219.264Q284.928-215.424 275.328-208.128L275.328-208.128Q275.328-232.320 279.552-247.488Q283.776-262.656 296.064-269.568Q308.352-276.480 332.544-276.480L332.544-276.480Q345.600-276.480 361.728-274.560Q377.856-272.640 394.944-270.720Q412.032-268.800 427.392-268.800L427.392-268.800Q442.368-268.800 454.272-271.680Q466.176-274.560 472.704-282.240L472.704-282.240Q480.384-277.248 484.416-268.608Q488.448-259.968 488.448-249.984L488.448-249.984Q488.448-239.616 483.648-229.824Q478.848-220.032 468.864-213.696Q458.880-207.360 442.752-207.360L442.752-207.360Q425.856-207.360 405.888-212.736Q385.920-218.112 364.800-221.952L364.800-221.952Q366.720-213.504 367.680-205.056Q368.640-196.608 368.640-187.776L368.640-187.776Q368.640-178.176 367.872-168.768Q367.104-159.360 365.568-149.376L365.568-149.376Q373.632-153.600 385.152-157.056Q396.672-160.512 408.768-162.816Q420.864-165.120 430.464-165.120L430.464-165.120Q436.608-165.120 441.216-163.968L441.216-163.968Q445.056-155.904 445.056-144.384L445.056-144.384Q445.056-125.952 435.840-106.752L435.840-106.752L433.152-105.600Q418.944-113.280 400.320-117.504Q381.696-121.728 361.344-123.264L361.344-123.264Q357.504-101.376 354.048-78.720Q350.592-56.064 350.592-32.256L350.592-32.256Q350.592-27.264 350.784-21.888Q350.976-16.512 351.360-11.136L351.360-11.136Q338.688 1.536 321.408 1.536Z" fill="#d9d300" transform="translate(6.015995025634766, 396.35198974609375)"/></svg>